# xmcd
#
# Track frame offsets:
#  150
#  20895
#  45155
#  64490
#  83605
#  102085
#  123160
#  142762
#  165349
#  182207
#
# Disc length: 2711 seconds
#
# Revision: 2
# Processed by: cddbd v1.4PL0 Copyright (c) Steve Scherf et al.
# Submitted via: AltoMP3_Maker 3.0
#
DISCID=760a950a
DTITLE=F4 - F4陪你等待最美的流星雨
DYEAR=1900
DGENRE=
TTITLE0=流星雨
TTITLE1=我是真的真的很爱你
TTITLE2=Here We Are
TTITLE3=谁让你流泪
TTITLE4=为你执着
TTITLE5=第一时间
TTITLE6=要定你
TTITLE7=你不爱我爱谁
TTITLE8=爱不会一直等你
TTITLE9=最特别的存在
EXTD=
EXTT0=
EXTT1=
EXTT2=
EXTT3=
EXTT4=
EXTT5=
EXTT6=
EXTT7=
EXTT8=
EXTT9=
PLAYORDER=
